<svg height="403.20001" viewBox="0 0 355.20001 403.20001" width="355.20001" xmlns="http://www.w3.org/2000/svg"><clipPath><path d="m0 302.4h266.4v-302.4h-266.4z"/></clipPath><g fill="#00a3e0"><path d="m0 0 24.811 14.325v-59.674l5.662-3.268 5.67 3.273v59.667l24.809-14.323 5.666 9.814-36.143 20.867-36.141-20.867z" transform="matrix(1.3333333 0 0 -1.3333333 136.96519657587 108.55347403283)"/><path d="m0 0-24.808 14.323 51.675 29.835v6.541l-5.669 3.273-51.673-29.833v28.647h-11.332v-41.734l36.14-20.866z" transform="matrix(1.3333333 0 0 -1.3333333 117.33559706661 283.31520299712)"/><path d="m0 0-104.007-60.049-104.004 60.049v120.095l104.004 60.049 104.007-60.049zm-104.007 193.229-115.337-66.591v-133.181l115.337-66.592 115.339 66.592v133.181z" transform="matrix(1.3333333 0 0 -1.3333333 316.27439209314 281.66480303838)"/><path d="m0 0 24.809-14.323-70.01-40.421-70.004 40.421 24.809 14.323-5.667 9.814-36.141-20.866v-41.733h11.332v28.647l70.011-40.421-.002-80.837-24.811 14.325-5.666-9.815 36.141-20.866 36.142 20.867-5.666 9.815-24.808-14.324v80.842l70.006 40.414v-28.647h11.333v41.733l-36.142 20.866z" transform="matrix(1.3333333 0 0 -1.3333333 237.86426072006 119.88747374948)"/><path d="m0 0v-28.647l-51.675 29.834-5.663-3.269v-6.548l51.672-29.833-24.809-14.323 5.666-9.814 36.142 20.866v41.734z" transform="matrix(1.3333333 0 0 -1.3333333 278.49705970424 212.93360475666)"/><path d="m0 0h-1.499v7.584h-.045l-2.977-7.584h-.947l-2.977 7.584h-.044v-7.584h-1.499v9.084h2.315l2.712-6.901 2.668 6.901h2.293zm-11.841 7.871h-2.844v-7.871h-1.499v7.871h-2.844v1.213h7.187z" transform="matrix(1.3333333 0 0 -1.3333333 334.16772497914 322.62053534782)"/></g></svg>