<?xml version="1.0" encoding="UTF-8" standalone="no"?>
<svg xmlns:dc="http://purl.org/dc/elements/1.1/"
     xmlns:cc="http://creativecommons.org/ns#"
     xmlns:rdf="http://www.w3.org/1999/02/22-rdf-syntax-ns#"
     xmlns:svg="http://www.w3.org/2000/svg"
     xmlns="http://www.w3.org/2000/svg"
     viewBox="0 0 355.20001 403.20001"
     height="403.20001"
     width="355.20001"
     xml:space="preserve"
     id="svg2"
     version="1.1">
  <metadata id="metadata8">
    <rdf:RDF>
      <cc:Work rdf:about="">
        <dc:format>image/svg+xml</dc:format>
        <dc:type rdf:resource="http://purl.org/dc/dcmitype/StillImage" />
      </cc:Work>
    </rdf:RDF>
  </metadata>
  <defs id="defs6">
    <clipPath id="clipPath18" clipPathUnits="userSpaceOnUse">
      <path id="path16" d="M 0,302.4 H 266.4 V 0 H 0 Z" />
    </clipPath>
  </defs>
  <g transform="matrix(1.3333333,0,0,-1.3333333,0,403.2)" id="g10">
    <g id="g12">
      <g clip-path="url(#clipPath18)" id="g14">
        <g transform="translate(133.199,284.3809)" id="g20" />
      </g>
    </g>
    <g transform="translate(102.7239,220.9849)" id="g22">
      <path id="path24"
         style="fill:#00a3e0;fill-opacity:1;fill-rule:nonzero;stroke:none"
         d="m 0,0 24.811,14.325 v -59.674 l 5.662,-3.268 5.67,3.273 V 14.323 L 60.952,0 66.618,9.814 30.475,30.681 -5.666,9.814 Z" />
    </g>
    <g transform="translate(88.0017,89.9136)" id="g26">
      <path id="path28"
         style="fill:#00a3e0;fill-opacity:1;fill-rule:nonzero;stroke:none"
         d="m 0,0 -24.808,14.323 51.675,29.835 v 6.541 L 21.198,53.972 -30.475,24.139 V 52.786 H -41.807 V 11.052 l 36.14,-20.866 z" />
    </g>
    <g transform="translate(237.2058,91.1514)" id="g30">
      <path id="path32"
         style="fill:#00a3e0;fill-opacity:1;fill-rule:nonzero;stroke:none"
         d="M 0,0 -104.007,-60.049 -208.011,0 V 120.095 L -104.007,180.144 0,120.095 Z M -104.007,193.229 -219.344,126.638 V -6.543 l 115.337,-66.592 115.339,66.592 v 133.181 z" />
    </g>
    <g transform="translate(178.3982,212.4844)" id="g34">
    <path id="path36"
         style="fill:#00a3e0;fill-opacity:1;fill-rule:nonzero;stroke:none"
         d="m 0,0 24.809,-14.323 -70.01,-40.421 -70.004,40.421 24.809,14.323 -5.667,9.814 -36.141,-20.866 v -41.733 h 11.332 v 28.647 l 70.011,-40.421 -0.002,-80.837 -24.811,14.325 -5.666,-9.815 36.141,-20.866 36.142,20.867 -5.666,9.815 -24.808,-14.324 v 80.842 l 70.006,40.414 v -28.647 h 11.333 v 41.733 L 5.666,9.814 Z" />
  </g>
    <g transform="translate(208.8728,142.6998)" id="g38">
    <path id="path40"
         style="fill:#00a3e0;fill-opacity:1;fill-rule:nonzero;stroke:none"
         d="M 0,0 V -28.647 L -51.675,1.187 -57.338,-2.082 V -8.63 l 51.672,-29.833 -24.809,-14.323 5.666,-9.814 36.142,20.866 0,41.734 z" />
  </g>
    <g transform="translate(250.6258,60.4346)" id="g42">
    <path id="path44"
         style="fill:#00a3e0;fill-opacity:1;fill-rule:nonzero;stroke:none"
         d="M 0,0 H -1.499 V 7.584 H -1.544 L -4.521,0 H -5.468 L -8.445,7.584 H -8.489 V 0 h -1.499 v 9.084 h 2.315 l 2.712,-6.901 2.668,6.901 H 0 Z m -11.841,7.871 h -2.844 V 0 h -1.499 v 7.871 h -2.844 v 1.213 h 7.187 z" />
    </g>
  </g>
</svg>
