<svg height="282.23999" viewBox="0 0 249.52 282.23999" width="249.52" xmlns="http://www.w3.org/2000/svg" xmlns:xlink="http://www.w3.org/1999/xlink"><clipPath id="a"><path d="m0 211.68h818.64v-211.68h-818.64z"/></clipPath><g clip-path="url(#a)" fill="#00a3e0" transform="matrix(1.3333333 0 0 -1.3333333 0 282.24)"><path d="m0 0 16.342 9.436v-39.306l3.73-2.153 3.735 2.156v39.302l16.34-9.435 3.733 6.465-23.807 13.744-23.805-13.744z" transform="translate(73.9124 151.8066)"/><path d="m0 0-16.341 9.435 34.038 19.651v4.309l-3.735 2.155-34.036-19.651v18.87h-7.464v-27.49l23.806-13.744z" transform="translate(64.2152 65.4726)"/><path d="m0 0-68.507-39.554-68.506 39.554v79.104l68.506 39.553 68.507-39.553zm-68.507 127.276-75.971-43.862v-87.725l75.971-43.862 75.971 43.862v87.725z" transform="translate(162.493 66.288)"/><path d="m0 0 16.341-9.435-46.114-26.625-46.11 26.625 16.341 9.435-3.733 6.465-23.806-13.745v-27.489h7.465v18.87l46.115-26.625-.002-53.246-16.342 9.435-3.733-6.465 23.806-13.744 23.807 13.745-3.733 6.465-16.341-9.435v53.249l46.112 26.621v-18.87h7.465v27.489l-23.806 13.744z" transform="translate(123.7577 146.2079)"/><path d="m0 0v-18.869l-34.038 19.651-3.73-2.153v-4.313l34.036-19.65-16.341-9.435 3.732-6.464 23.805 13.744v27.489z" transform="translate(143.8309 100.2411)"/><path d="m0 0h-.987v4.995h-.03l-1.961-4.995h-.623l-1.961 4.995h-.029v-4.995h-.988v5.983h1.525l1.786-4.546 1.758 4.546h1.51zm-7.799 5.185h-1.873v-5.185h-.988v5.185h-1.874v.798h4.735z" transform="translate(171.3324 46.0546)"/></g></svg>