<svg xmlns="http://www.w3.org/2000/svg" viewBox="0 0 390.23 345.03"><defs><style>.cls-1{fill:#965314;}.cls-2{fill:#231f20;}.cls-3{fill:#743e02;}.cls-4{fill:#a55c19;}.cls-15,.cls-18,.cls-5{fill:#808285;}.cls-19,.cls-6{fill:#3b3b3c;}.cls-6{opacity:0.53;}.cls-7{fill:#9a1420;}.cls-12,.cls-13,.cls-14,.cls-15,.cls-18,.cls-7{stroke:#231f20;}.cls-12,.cls-13,.cls-14,.cls-15,.cls-18,.cls-19,.cls-7{stroke-miterlimit:10;}.cls-13,.cls-14,.cls-18,.cls-7{stroke-width:0.75px;}.cls-8{fill:#f1f2f2;}.cls-9{fill:#fff;}.cls-10{fill:#434345;}.cls-11{fill:#7bb7e4;}.cls-12{fill:none;stroke-width:0.5px;}.cls-13{fill:#545456;}.cls-14{fill:#414042;}.cls-16{fill:#794105;}.cls-17{fill:#caaf0e;}.cls-19{stroke:#414042;}</style></defs><title>Asset 2</title><g id="Layer_2" data-name="Layer 2"><g id="Layer_2-2" data-name="Layer 2"><path class="cls-1" d="M89,98.82A165.43,165.43,0,0,1,99.92,60.1c8.47-20,20-46.58,27.22-52.63S155,2,168.89,1.41s24.2-1.81,32.06,0,69,45.32,76.84,55.94,15.73,37.84,15.73,37.84l-118,27.23L89,114.55Z"/><path class="cls-2" d="M175.57,122.87h-.07L88.57,115V98.76A167.53,167.53,0,0,1,99.5,59.92C109,37.46,119.78,13,126.85,7.12,133,2,148.16,1.56,161.51,1.2c2.58-.07,5.06-.14,7.36-.24,3-.13,5.9-.29,8.6-.44,9.71-.56,17.37-1,23.59.45,4.3,1,23,13.52,38.58,24.74,15.85,11.43,34.29,25.67,38.51,31.37,7.83,10.56,15.73,37.71,15.8,38l.14.46-.47.11Zm-86.09-8.73,86,7.82L293,94.86c-1.08-3.63-8.35-27.57-15.53-37.24-7.93-10.72-69.08-54-76.57-55.76-6.08-1.41-13.69-1-23.33-.44-2.7.15-5.57.32-8.61.45-2.31.1-4.8.16-7.38.24-12.54.33-28.16.75-34.1,5.7-6.91,5.76-17.61,30.1-27.09,52.47A166.94,166.94,0,0,0,89.48,98.85Z"/><path class="cls-3" d="M258.13,96.74c-.41-.36-41.29-36.47-51.48-49.06s-7.39-37-7.36-37.25l.9.12c0,.24-2.87,24.16,7.17,36.56s51,48.59,51.37,49Z"/><path class="cls-4" d="M.46,88.6S8,119,21.64,132.76s27.52,25.1,64.73,43.56C113.86,190,142,204.76,171.07,210.2s100.43,10.29,124,9.68,35.59-.92,47.79-4.84c11.8-3.78,31.46-15.27,37.51-23,4-5.06,10.9-19.36,9.08-32.06s-9.68-35.09-15.13-43.56S356.2,94,342.89,88.6a99.75,99.75,0,0,0-35.05-7.26c-7.9,0-38.94,3.1-50.25,6-11.84,3.08-43.34,8.11-77.44,10.89-30.25,2.46-55.06,1.21-95.59,1.21-33.12,0-56.55-4.73-65.34-7.56-5-1.6-13.92-9.88-16.34-8.72S1.07,84.06.46,88.6Z"/><path class="cls-2" d="M290.75,220.39c-26.49,0-91.53-4.45-119.76-9.74-26.86-5-53.07-18.1-78.42-30.73l-6.4-3.19c-35.59-17.65-50.25-29-64.86-43.65C7.72,119.42.1,89,0,88.71l0-.09v-.08c.12-.9.19-1.61.25-2.18.25-2.43.34-2.57,2.41-3.55,1.52-.73,4.33,1.08,8.79,4.09,2.83,1.93,5.76,3.91,7.9,4.6C28,94.3,51.55,99,84.56,99c11,0,20.6.08,29.91.17,24.36.23,43.61.41,65.64-1.38,32.42-2.64,64.79-7.6,77.36-10.88,11.1-2.89,42.29-6.06,50.37-6.06a99.46,99.46,0,0,1,35.22,7.29c13.61,5.57,26.4,19.8,31.68,28,5.58,8.69,13.39,31.17,15.19,43.74,1.87,13.1-5.51,27.74-9.17,32.41-6.24,7.95-26,19.36-37.73,23.14-12.31,4-24.21,4.25-47.92,4.86C293.81,220.37,292.35,220.39,290.75,220.39ZM.92,88.57c.45,1.77,8,30.74,21,43.88,14.54,14.61,29.14,25.87,64.61,43.47,2.14,1.05,4.27,2.12,6.4,3.19,25.3,12.6,51.46,25.64,78.19,30.65,29.89,5.6,101.09,10.26,123.93,9.67,23.62-.6,35.47-.91,47.66-4.82,11.41-3.65,31.26-15.14,37.3-22.83,3.58-4.57,10.81-18.91,9-31.73-1.78-12.46-9.52-34.76-15.06-43.37-5.21-8.12-17.83-22.17-31.25-27.66a100.25,100.25,0,0,0-34.88-7.23c-8,0-39.1,3.16-50.14,6-12.61,3.28-45,8.26-77.52,10.9-22.07,1.79-41.33,1.61-65.72,1.39-9.3-.09-18.92-.18-29.9-.18-33.12,0-56.74-4.76-65.48-7.58-2.26-.73-5.24-2.75-8.13-4.7-3.17-2.14-6.75-4.54-7.87-4-1.71.82-1.71.82-1.92,2.84C1.11,87,1,87.7.92,88.57Z"/><ellipse class="cls-2" cx="193.39" cy="160.82" rx="22.04" ry="107.66" transform="translate(2.42 324.51) rotate(-80.35)"/><path class="cls-2" d="M388,162.47c-1.78-12.47-9.52-34.77-15.06-43.38-5.21-8.11-17.83-22.17-31.25-27.66a100.2,100.2,0,0,0-34.88-7.22c-8,0-39.1,3.16-50.14,6-12.61,3.29-45,8.26-77.52,10.91-22.07,1.79-41.33,1.61-65.72,1.38-9.31-.08-18.92-.17-29.91-.17-33.11,0-56.73-4.77-65.47-7.59-2.26-.72-5.24-2.74-8.13-4.7C6.72,87.93,3.12,85.47,2,86l-.39-.82c1.52-.73,4.32,1.1,8.78,4.11,2.83,1.92,5.76,3.91,7.89,4.59,8.69,2.8,32.21,7.54,65.2,7.54,11,0,20.61.09,29.92.18,24.36.22,43.6.4,65.64-1.39,32.42-2.64,64.79-7.6,77.36-10.88,11.1-2.89,42.29-6.06,50.37-6.06A101.18,101.18,0,0,1,342,90.59c13.61,5.57,26.4,19.8,31.68,28,5.58,8.69,13.39,31.17,15.19,43.74Z"/><path class="cls-5" d="M87.19,143.47s-4.13,18.84-4.13,45.69,47.62,57.25,55.09,58.16,119.47,22,138.21-2.73,23.46-65.07,23.46-65.07.46-23.26-18.92-36.64c-20.4-14.09-61-18.36-72.6-19.8-22.69-2.81-99.18-3.72-106.31,1.72S89,135,89,135Z"/><path class="cls-2" d="M228.11,257c-25.75,0-57.32-3.92-85.26-8.45-2.44-.39-4-.66-4.75-.74-7.85-1-55.49-31.58-55.49-58.61,0-26.59,4.09-45.6,4.14-45.78l1.87-8.61.12-.1c.06,0,5.92-4.84,13-10.23s83.25-4.71,106.64-1.81l2.05.25c14,1.69,51.33,6.21,70.76,19.62s19.12,36.79,19.11,37c0,.45-4.95,40.82-23.55,65.34C270,253.74,251.44,257,228.11,257ZM89.44,135.28l-1.81,8.29c0,.19-4.11,19.1-4.11,45.59,0,6.45,3.19,20,24.58,38.46,12.65,10.91,26.5,18.81,30.1,19.25.72.09,2.34.35,4.8.75,96,15.58,125.34,6.8,133-3.3,18.45-24.33,23.32-64.45,23.37-64.85,0-.19.22-23.14-18.73-36.22-19.24-13.29-56.38-17.78-70.35-19.47l-2-.25c-22.69-2.81-99.15-3.58-106,1.64C95.78,130.11,90.31,134.56,89.44,135.28Z"/><path class="cls-6" d="M92.47,209.45l9.11,5.15s3.17,1.24,3.92,0,1.73-6.17,1.73-6.17.51-2,1.73-1.74,11.53,9,26.27,11.69,36.13-1.56,38.64-2.32A3.18,3.18,0,0,1,178,219c.11,1.63-.44,8.28,2.07,8.17s24.78-7.43,24.78-7.43,22.54-9.58,24.28-24,7-49.68,7-49.68,39.51-.75,42.78,14.71c2.91,13.74.33,65,.33,65s-48.31,13.56-57.5,15.53-68.43.43-79.77-.68-40.94-20.44-44.59-22.55S92.47,209.45,92.47,209.45Z"/><path class="cls-4" d="M62.08,108,47.76,136.66l39.43,6.81a4.18,4.18,0,0,1,0-1.32c2.36-10.82,52-13.64,110.63-3.67s104.48,27.77,102.44,39.78a4.92,4.92,0,0,1-.42,1.26l40.2,6.84L313.15,99Z"/><path class="cls-2" d="M169.38,264.41l-.71-.55c.34-.45,34.39-44.68,38.74-59.32,4-13.38,6.15-62.34,6.17-62.84l.9,0c0,.49-2.19,49.57-6.2,63C203.88,219.6,170.79,262.59,169.38,264.41Z"/><path class="cls-7" d="M96.5,211.92s21.26,25.56,40.46,27.63,76.52-3.26,86-4c6.25-.5,66.62-15.8,66.62-15.8s-4.32,16.71-20.89,45.8c-13.14,23.07-40.71,23.5-77.13,43s-49.87,35.88-49.87,35.88-30.46-39.94-37.31-60.26C91.08,244.73,96.5,211.92,96.5,211.92Z"/><path class="cls-2" d="M300.26,179.6l-.89-.16c1.82-10.49-11.79-15.48-26.19-20.76-2.8-1-5.71-2.09-8.45-3.18-16.51-6.62-49.69-15.73-114-21.54-44.4-4-57.62,1.65-61.52,5.39a4.28,4.28,0,0,0-1.62,2.78l-.91,0c0-.07,0-1.61,1.9-3.48,4-3.84,17.46-9.7,62.24-5.63,64.37,5.82,97.64,15,114.21,21.59,2.73,1.09,5.62,2.15,8.42,3.18C287.61,163,302.21,168.36,300.26,179.6Z"/><path class="cls-8" d="M140.73,308.79l-2.72-.13c0-.28,1.35-28.54,2.76-39.14s5.61-33,5.65-33.22l2.67.5c0,.23-4.22,22.57-5.62,33.08S140.74,308.5,140.73,308.79Z"/><path class="cls-8" d="M112.44,269.67l-2.63-.68c0-.11,2.73-10.46,5.28-21.54,1.79-7.81,9.1-10.35,9.41-10.93l-2.6.3c-.08.14-2.45,3.79-4.16,11.24C115.19,259.18,112.47,269.57,112.44,269.67Z"/><path class="cls-8" d="M184.26,291.25c0-.17-2.51-17.08-3.41-25.18s0-28.07,0-28.91l2.72.12c0,.21-.9,20.52,0,28.49s3.38,24.91,3.41,25.08Z"/><path class="cls-8" d="M221.44,280.93h-2.73c0-7.42-4-44-4.05-44.36l2.71-.3C217.53,237.78,221.44,273.37,221.44,280.93Z"/><path class="cls-8" d="M248.35,267.8c-.95-7.13-6.95-35.73-7-36l2.67-.56c.25,1.18,6.07,29,7,36.21Z"/><rect class="cls-8" x="263.79" y="226.33" width="2.73" height="19.43" transform="translate(-47.41 67.74) rotate(-13.37)"/><path class="cls-8" d="M105.53,238.57l-1.68-.66c1.37-3.52,7.71-13.24,8-13.65l1.51,1C113.28,225.35,106.84,235.22,105.53,238.57Z"/><path class="cls-9" d="M98.58,229.59l-.85-.32c.45-1.22,5.3-8.73,5.86-9.58l.76.49C102.86,222.47,98.94,228.63,98.58,229.59Z"/><path class="cls-9" d="M96.65,219.33l-.86-.29a17.68,17.68,0,0,1,2-3.18l.72.55A17,17,0,0,0,96.65,219.33Z"/><path class="cls-10" d="M165.16,209.91l-49.66-7c-18.91-2.21-22.15-24.37-20.84-34.65h0c3.47-14.11,11.71-25.49,23.75-24.4L173,145.57c18.92,2.2,28.23,18.67,26,37.58h0C196.78,202.07,184.08,212.12,165.16,209.91Z"/><path class="cls-11" d="M161.68,205.44l-43.74-6.16c-16.66-1.94-19.51-21.46-18.36-30.52h0c3.06-12.43,10.31-22.45,20.92-21.49l48.06,1.49c16.66,1.94,24.86,16.44,22.92,33.11h0C189.53,198.53,178.34,207.38,161.68,205.44Z"/><path class="cls-9" d="M174.49,152.19a18.12,18.12,0,0,1,6.77,4.88,33.14,33.14,0,0,1,5.08,7.52l-3.28,2.71a56.16,56.16,0,0,0-3.89-6.36c-1.76-2.35-6.46-5.25-6.46-5.25Z"/><polygon class="cls-9" points="183.56 168.22 186.68 165.54 187.48 167.18 183.95 169.46 183.56 168.22"/><polygon class="cls-9" points="128.79 195.18 125.23 168.85 118.01 185.2 115.58 170.51 114.26 173.3 102.7 171.38 103 169.58 113.2 171.29 116.42 164.48 118.81 178.9 126.17 162.23 129.53 187.08 140.96 152.09 141.93 173.46 147.14 162.93 152.33 183.66 160.17 166.99 164.47 180.26 168.92 175.19 174.23 179.59 186.45 181.07 186.23 182.87 173.48 181.33 169.12 177.72 163.72 183.84 159.86 171.92 151.81 189.04 146.58 168.16 140.43 180.57 139.59 162.1 128.79 195.18"/><path class="cls-8" d="M188,305.18a7.7,7.7,0,0,1-7.33-6,8,8,0,0,1,.78-5.81,7.11,7.11,0,0,1,10.18-2.47A7.89,7.89,0,0,1,195,295.7a7.57,7.57,0,0,1-5.32,9.28A7.24,7.24,0,0,1,188,305.18Zm-.34-12.75a4.35,4.35,0,0,0-3.84,2.3,5.18,5.18,0,0,0-.5,3.81,4.66,4.66,0,1,0,9-2.2,5.16,5.16,0,0,0-2.2-3.15A4.51,4.51,0,0,0,187.63,292.43Z"/><path class="cls-8" d="M109.32,280.82a3.67,3.67,0,0,1-1.22-.2c-2.59-.9-3.63-4.46-2.36-8.09s4.3-5.78,6.87-4.88a4.39,4.39,0,0,1,2.7,3.31,8.62,8.62,0,0,1-.34,4.78h0C113.9,278.81,111.57,280.82,109.32,280.82Zm2.07-10.65c-1,0-2.38,1.25-3.08,3.25-.78,2.24-.28,4.29.69,4.63s2.62-1,3.4-3.21h0a6.08,6.08,0,0,0,.27-3.25,1.84,1.84,0,0,0-1-1.37A.88.88,0,0,0,111.39,270.17Z"/><path class="cls-8" d="M219.57,290.92a5.34,5.34,0,0,1-4.29-5,5.55,5.55,0,0,1,1.23-3.88,4.95,4.95,0,0,1,7.25-.47,5.48,5.48,0,0,1,1.72,3.68,5.26,5.26,0,0,1-4.75,5.7A4.5,4.5,0,0,1,219.57,290.92Zm1.3-8.75a3.35,3.35,0,0,0-.71,0,3.07,3.07,0,0,0-2.19,1.15,3.59,3.59,0,0,0-.8,2.54,3.23,3.23,0,1,0,6.43-.42,3.58,3.58,0,0,0-1.13-2.42A3.1,3.1,0,0,0,220.87,282.17Z"/><path class="cls-8" d="M250.2,277.42a5.33,5.33,0,0,1-4.29-5,5.51,5.51,0,0,1,1.23-3.88,4.91,4.91,0,0,1,3.52-1.82,5,5,0,0,1,3.73,1.35,5.48,5.48,0,0,1,1.72,3.68,5.27,5.27,0,0,1-4.75,5.71A5,5,0,0,1,250.2,277.42Zm1.3-8.75a3.35,3.35,0,0,0-.71,0,3.07,3.07,0,0,0-2.19,1.15,3.55,3.55,0,0,0-.8,2.54,3.23,3.23,0,1,0,6.42-.41,3.58,3.58,0,0,0-1.12-2.43A3.1,3.1,0,0,0,251.5,268.67Z"/><path class="cls-9" d="M268.15,254.67a5.34,5.34,0,0,1-4.29-5,5.48,5.48,0,0,1,1.23-3.87,4.93,4.93,0,0,1,7.25-.47,5.48,5.48,0,0,1,1.72,3.68,5.26,5.26,0,0,1-4.75,5.7A4.48,4.48,0,0,1,268.15,254.67Zm1.3-8.75a2.8,2.8,0,0,0-.71,0,3.06,3.06,0,0,0-2.19,1.14,3.57,3.57,0,0,0-.8,2.55,3.23,3.23,0,1,0,6.42-.42,3.57,3.57,0,0,0-1.12-2.42A3.1,3.1,0,0,0,269.45,245.92Z"/><path class="cls-8" d="M99.62,245.21c-1.12-.9-1.21-2.91-.1-4.88a7.08,7.08,0,0,1,2.53-2.62,3.53,3.53,0,0,1,2.88-.47,2.28,2.28,0,0,1,1.49,2,5.37,5.37,0,0,1-.75,3.24c-1.29,2.29-3.72,3.67-5.42,3.08A2.16,2.16,0,0,1,99.62,245.21Zm4.88-6.29a1.24,1.24,0,0,0-.39-.22,2.19,2.19,0,0,0-1.79.3,4.61,4.61,0,0,0-1.66,1.73c-.84,1.48-.66,3,.41,3.37s2.62-.53,3.46-2A3.49,3.49,0,0,0,105,240,1.52,1.52,0,0,0,104.5,238.92Z"/><path class="cls-8" d="M96,233.86c-.61-.31-.8-1.33-.41-2.5a4.35,4.35,0,0,1,1-1.69A1.85,1.85,0,0,1,98,229a1,1,0,0,1,.87.83,3.13,3.13,0,0,1-.13,1.76C98.3,233,97.22,234,96.35,234A.91.91,0,0,1,96,233.86Zm1.91-3.9a.66.66,0,0,0-.2-.06,1.14,1.14,0,0,0-.85.4,2.86,2.86,0,0,0-.69,1.11c-.29.88-.09,1.63.45,1.68s1.24-.63,1.54-1.51a2.06,2.06,0,0,0,.08-1.16A.68.68,0,0,0,97.93,230Z"/><path class="cls-8" d="M94.38,222.52c-.43-.21-.52-1-.19-2a4.21,4.21,0,0,1,.83-1.41,1.42,1.42,0,0,1,1-.59c.3,0,.51.21.59.6a2.76,2.76,0,0,1-.17,1.42c-.39,1.11-1.21,2-1.83,2A.52.52,0,0,1,94.38,222.52Zm1.54-3.23a.33.33,0,0,0-.14,0,.93.93,0,0,0-.63.38,2.51,2.51,0,0,0-.54.93c-.25.72-.14,1.3.25,1.31s.91-.58,1.16-1.3a1.83,1.83,0,0,0,.12-.94A.43.43,0,0,0,95.92,219.29Z"/><path class="cls-8" d="M139.09,328.39c-4,0-7.77-3.48-8.82-8.61a13.35,13.35,0,0,1,.94-8.33,8.92,8.92,0,0,1,5.46-5,7.47,7.47,0,0,1,6.77,1.43,11.59,11.59,0,0,1,4,6.88c1.22,6-1.66,12-6.4,13.33A7.2,7.2,0,0,1,139.09,328.39Zm-.41-18.31a4.31,4.31,0,0,0-1.23.18,5.58,5.58,0,0,0-3.4,3.12,8.79,8.79,0,0,0-.6,5.48c.79,3.87,3.84,6.3,6.86,5.44s4.78-4.73,4-8.6a7.58,7.58,0,0,0-2.65-4.53A4.78,4.78,0,0,0,138.68,310.08Z"/><path class="cls-12" d="M96.5,211.92s22.26,24.56,41.46,26.63,75.52-2.26,85-3c6.25-.5,66.62-15.8,66.62-15.8s-4.32,16.71-20.89,45.8c-13.14,23.07-40.71,23.5-77.13,43s-49.87,35.88-49.87,35.88-30.46-39.94-37.31-60.26C91.08,244.73,96.5,211.92,96.5,211.92Z"/><path class="cls-13" d="M273.18,166.06s-12.05-1.37-14.83,5.72-9.26,52.48-9.26,52.48-30.6,12.84-38.72,14c-6.47.93-42.33-11.31-73.51-15.43-16.91-2.23-13,3.74-49-3.84l-7,11S87,239.86,128,244.57c28.21,3.25,63.21,5.45,78,2.43s47-21,47-21,7-47.55,9.16-52.37C265.74,165.54,273.18,166.06,273.18,166.06Z"/><polygon class="cls-14" points="111.31 230.97 128.46 220.39 154.26 240.11 126.08 240.48 111.31 230.97"/><path class="cls-15" d="M80.91,222s2.42-9,31.75-2.67,82,23,95.34,20.67,45-14,45-14,5.66-52,11.66-57,14.67-2.67,15.34,0-1.34,79.33-1.34,79.33S224,285,214,286.67s-92.52-7.05-109.62-10.5c-15.3-3.09-37.47-15.56-37.47-15.56Z"/><ellipse class="cls-5" cx="270.95" cy="178.95" rx="3.25" ry="5.25"/><path class="cls-2" d="M271,184.7c-2.11,0-3.75-2.53-3.75-5.75s1.64-5.75,3.75-5.75,3.75,2.53,3.75,5.75S273.05,184.7,271,184.7Zm0-10.5c-1.49,0-2.75,2.17-2.75,4.75s1.26,4.75,2.75,4.75,2.75-2.17,2.75-4.75S272.44,174.2,271,174.2Z"/><line class="cls-5" x1="270.95" y1="184.2" x2="270.95" y2="173.7"/><rect class="cls-2" x="270.45" y="173.7" width="1" height="10.5"/><polygon class="cls-5" points="273.05 172.21 268.5 172.21 266.23 178.45 268.5 184.69 273.05 184.69 275.32 178.45 273.05 172.21"/><path class="cls-2" d="M273.31,185.06h-5.07l-2.41-6.61,2.41-6.62h5.07l2.41,6.62Zm-4.54-.75h4l2.13-5.86-2.13-5.87h-4l-2.14,5.87Z"/><polygon class="cls-5" points="275.86 172.21 271.31 172.21 269.04 178.45 271.31 184.69 275.86 184.69 278.13 178.45 275.86 172.21"/><path class="cls-2" d="M276.12,185.06h-5.07l-2.41-6.61,2.41-6.62h5.07l2.41,6.62Zm-4.54-.75h4l2.14-5.86-2.14-5.87h-4l-2.14,5.87Z"/><ellipse class="cls-5" cx="273.59" cy="178.45" rx="2.15" ry="3.41"/><path class="cls-2" d="M273.59,182.23c-1.42,0-2.53-1.66-2.53-3.78s1.11-3.78,2.53-3.78,2.52,1.66,2.52,3.78S275,182.23,273.59,182.23Zm0-6.81c-1,0-1.78,1.39-1.78,3s.82,3,1.78,3,1.77-1.39,1.77-3S274.55,175.42,273.59,175.42Z"/><rect class="cls-2" x="266.23" y="178.07" width="2.81" height="0.75"/><path class="cls-6" d="M78.91,227s-1.79-15.74,27.55-9.41C88,213.62,242.41,234,208,240c13.33-2.33,41-14,41-14s5.66-52,11.66-57,18.67-2.67,19.34,0-1.34,79.33-1.34,79.33S223.6,285.4,212,286.67c-10.08,1.09-92.71-7.82-110.34-11.67-15.24-3.33-34.75-14.39-34.75-14.39Z"/><path class="cls-2" d="M130,208.1s25-26.39,46.39-18.16,37.62,38.8,51.27,37.62,27.82-10,33.37-14.33c6.28-4.9,17.6-5.57,14.37,1.88s-19.87,27.3-39.22,33.08C215.78,254.3,186,259,166.65,252s-39-25.95-39-25.95-8.85,5.71-15.59,10.63c-4.63,3.38-21.46,4.17-28.86,2.07s-23.58-11.54-27.18-20.45S51.42,198.63,53.28,198s9.61,7.43,13,7.73,10.09-.12,16.92-9.34,16.2-10.51,24.2-7.2S130,208.1,130,208.1Z"/><path class="cls-16" d="M183.24,43.76A3.4,3.4,0,0,0,180,47l-18.76-.55L156,25.83a3.63,3.63,0,0,0,2.42-3.42,3.24,3.24,0,1,0-6.41-.23,3.69,3.69,0,0,0,2,3.53L147.64,46l-18.74-.55a3.23,3.23,0,1,0-6.4-.15,3.47,3.47,0,0,0,3.07,3.79,3.14,3.14,0,0,0,2.68-1.48l14.74,13L136.57,80.9a2.68,2.68,0,0,0-.89-.2,3.71,3.71,0,1,0,3.07,3.79,4,4,0,0,0-.58-2.23l15.5-12.14,15.11,13.39a4.07,4.07,0,0,0-.61,2A3.24,3.24,0,1,0,171.51,82a2.83,2.83,0,0,0-1.35.29l-5.24-21,15.4-12.06A3.15,3.15,0,0,0,183,51.11a3.71,3.71,0,0,0,.26-7.35Z"/><path class="cls-17" d="M182,41.87a3.4,3.4,0,0,0-3.29,3.21l-18.76-.56L154.75,24a3.64,3.64,0,0,0,2.42-3.43,3.24,3.24,0,1,0-6.41-.22,3.65,3.65,0,0,0,2,3.52l-6.44,20.3-18.73-.56a3.23,3.23,0,1,0-6.41-.15,3.47,3.47,0,0,0,3.08,3.79A3.1,3.1,0,0,0,127,45.72L141.7,58.78,135.28,79a2.74,2.74,0,0,0-.9-.2,3.71,3.71,0,1,0,3.08,3.79,4,4,0,0,0-.58-2.23l15.5-12.14,15.11,13.38a4,4,0,0,0-.61,2,3.24,3.24,0,1,0,3.33-3.56,2.79,2.79,0,0,0-1.34.29l-5.24-20.94L179,47.37a3.12,3.12,0,0,0,2.66,1.85,3.71,3.71,0,0,0,.26-7.35Z"/><path class="cls-18" d="M67.38,261.69l4.07,7.41s34.31,20.09,42.87,22,92,6.49,99.49,3.5,64.85-46.27,64.85-46.27S222.93,286.05,214,286.67s-78-4.52-95.85-9S67.38,261.69,67.38,261.69Z"/><path class="cls-6" d="M67.87,261.3l3.54,7.49s35.32,21.08,43.88,23,92,5.49,99.48,2.49S278.63,248,278.63,248,222.9,285.74,214,286.35s-79-4.51-96.84-9S67.87,261.3,67.87,261.3Z"/><line class="cls-19" x1="126.27" y1="244.19" x2="120.78" y2="270.17"/></g></g></svg>